<?xml version="1.0" standalone="no"?>
<!DOCTYPE svg PUBLIC "-//W3C//DTD SVG 20010904//EN"
 "http://www.w3.org/TR/2001/REC-SVG-20010904/DTD/svg10.dtd">
<svg version="1.0" xmlns="http://www.w3.org/2000/svg"
 width="500.000000pt" height="500.000000pt" viewBox="0 0 500.000000 500.000000"
 preserveAspectRatio="xMidYMid meet">

<g transform="translate(0.000000,500.000000) scale(0.100000,-0.100000)"
fill="#000000" stroke="none">
<path d="M2294 3457 c-83 -32 -123 -58 -178 -117 -44 -47 -96 -138 -96 -168 0
-11 -11 -12 -48 -7 -62 8 -178 -16 -244 -52 -157 -85 -249 -272 -220 -445 38
-222 213 -368 440 -368 l57 0 250 250 250 250 -85 0 -85 0 -190 -191 -190
-190 -50 4 c-104 8 -198 74 -247 174 -63 129 -36 269 71 365 93 84 233 105
339 52 l57 -29 1 70 c1 117 67 221 172 271 47 23 71 28 137 28 67 1 89 -3 133
-25 l54 -27 43 43 43 44 -36 23 c-68 45 -123 60 -222 64 -81 4 -104 1 -156
-19z"/>
<path d="M2860 3361 c-93 -21 -166 -69 -205 -135 -31 -53 -49 -143 -36 -177 8
-20 10 -21 10 -5 1 31 47 101 85 130 70 53 123 69 231 70 139 1 195 -22 291
-118 55 -55 76 -85 93 -131 31 -81 42 -165 30 -233 -10 -66 -57 -168 -93 -201
l-25 -23 26 63 c15 37 28 92 31 132 l5 67 -349 0 -349 0 -250 -250 -250 -250
85 0 85 0 160 160 c88 88 164 160 170 160 6 0 82 -72 170 -160 182 -182 169
-176 309 -140 102 26 177 69 252 146 157 162 195 394 96 599 -65 134 -163 222
-302 273 -70 25 -207 37 -270 23z"/>
<path d="M1455 2165 c-47 -24 -65 -52 -65 -100 0 -36 5 -48 29 -68 17 -14 54
-30 83 -37 94 -22 125 -60 76 -94 -35 -25 -76 -20 -110 14 -38 38 -88 42 -88
7 0 -57 63 -97 152 -97 75 0 119 25 137 76 26 74 -17 128 -119 149 -52 10 -80
32 -80 60 0 47 97 58 120 14 15 -26 80 -27 80 -1 0 71 -133 118 -215 77z"/>
<path d="M3350 2165 c-10 -12 -10 -18 0 -30 20 -25 55 -15 55 15 0 30 -35 40
-55 15z"/>
<path d="M3085 2153 c-4 -10 -29 -79 -55 -153 -27 -74 -55 -154 -64 -178 l-16
-43 31 3 c27 3 34 10 49 48 l18 45 78 0 78 0 15 -47 c13 -44 17 -48 47 -48
l32 0 -63 173 c-34 94 -65 182 -69 195 -9 28 -70 32 -81 5z m66 -130 c12 -38
24 -74 27 -80 3 -10 -11 -13 -52 -13 -31 0 -56 4 -56 8 0 7 26 89 45 140 8 21
13 14 36 -55z"/>
<path d="M2780 2115 c0 -28 -4 -35 -20 -35 -16 0 -20 -7 -20 -30 0 -23 4 -30
20 -30 19 0 20 -7 20 -90 0 -83 2 -93 25 -115 18 -18 35 -25 65 -25 38 0 40 2
40 29 0 23 -5 30 -22 33 -21 3 -23 9 -26 86 -3 82 -3 82 23 82 21 0 25 5 25
30 0 25 -4 30 -25 30 -22 0 -25 4 -25 35 0 34 -1 35 -40 35 -39 0 -40 -1 -40
-35z"/>
<path d="M1740 1935 l0 -145 35 0 35 0 0 93 c0 103 14 137 55 137 36 0 45 -28
45 -134 l0 -96 35 0 35 0 0 93 c0 99 14 137 50 137 40 0 50 -26 50 -131 l0
-99 35 0 35 0 0 120 c0 115 -1 122 -25 145 -32 33 -84 33 -121 2 l-27 -23 -23
23 c-32 32 -87 31 -119 -2 l-25 -24 0 24 c0 22 -5 25 -35 25 l-35 0 0 -145z"/>
<path d="M2268 2063 c-14 -9 -31 -27 -37 -40 -10 -22 -9 -23 26 -23 20 0 45 8
55 17 24 22 72 7 76 -24 3 -24 -5 -28 -82 -38 -88 -12 -126 -86 -71 -140 32
-33 105 -35 135 -5 11 11 22 20 25 20 3 0 5 -9 5 -20 0 -16 7 -20 35 -20 l35
0 0 99 c0 115 -12 156 -51 176 -37 20 -117 19 -151 -2z m122 -165 c0 -48 -70
-79 -99 -44 -17 20 2 53 31 59 55 10 68 8 68 -15z"/>
<path d="M2530 1935 l0 -145 40 0 40 0 0 95 c0 83 3 98 21 116 14 14 28 19 44
15 18 -5 24 -1 29 17 10 39 7 47 -21 47 -33 0 -46 -8 -61 -35 -11 -19 -11 -18
-12 8 0 25 -3 27 -40 27 l-40 0 0 -145z"/>
<path d="M3593 2072 c-13 -2 -30 -13 -38 -25 l-15 -21 0 22 c0 18 -6 22 -30
22 l-30 0 0 -145 0 -145 30 0 30 0 0 98 c0 116 12 142 66 142 29 0 34 3 34 24
0 26 -13 34 -47 28z"/>
<path d="M3350 1925 l0 -145 30 0 30 0 0 145 0 145 -30 0 -30 0 0 -145z"/>
</g>
</svg>
